<?xml version="1.0" standalone="no"?>
<!DOCTYPE svg PUBLIC "-//W3C//DTD SVG 20010904//EN"
 "http://www.w3.org/TR/2001/REC-SVG-20010904/DTD/svg10.dtd">
<svg version="1.0" xmlns="http://www.w3.org/2000/svg"
 width="596.000000pt" height="240.000000pt" viewBox="0 0 596.000000 240.000000"
 preserveAspectRatio="xMidYMid meet">

<g transform="translate(0.000000,240.000000) scale(0.100000,-0.100000)"
fill="#000000" stroke="none">
<path d="M3882 2303 c-13 -3 -32 -19 -43 -36 -16 -28 -19 -51 -19 -184 l0
-153 -94 0 c-85 0 -98 -2 -122 -23 -34 -30 -37 -79 -6 -110 19 -18 36 -22 122
-25 l100 -4 0 -352 c0 -193 5 -385 10 -426 19 -152 79 -251 184 -304 75 -38
211 -48 301 -21 79 23 130 72 121 117 -13 66 -70 87 -139 52 -47 -25 -153 -24
-196 1 -93 55 -101 101 -101 561 l0 372 153 4 c164 3 180 8 198 57 13 33 -5
75 -37 90 -15 6 -83 11 -169 11 l-145 0 0 159 c0 152 -1 161 -22 184 -24 26
-58 37 -96 30z"/>
<path d="M2523 2240 c-34 -15 -49 -36 -144 -206 -59 -104 -164 -290 -234 -414
-357 -631 -437 -777 -442 -805 -3 -19 1 -45 11 -63 33 -65 -5 -62 867 -62
l791 0 34 34 c26 26 34 42 34 70 0 45 16 15 -273 526 -133 234 -257 454 -277
490 -160 287 -224 398 -240 413 -28 30 -82 37 -127 17z m361 -890 c98 -173
191 -338 207 -366 16 -28 29 -54 29 -58 0 -3 -247 -6 -550 -6 -302 0 -550 2
-550 5 0 2 46 86 103 187 57 101 175 309 261 463 87 154 165 291 173 304 15
23 16 21 82 -95 37 -66 147 -261 245 -434z"/>
<path d="M253 2240 c-17 -6 -43 -24 -57 -41 l-26 -31 2 -720 3 -720 33 -29 32
-29 353 0 c325 0 359 2 433 21 205 54 355 177 452 374 61 122 86 235 86 385 1
287 -109 523 -309 665 -83 59 -126 79 -225 105 -78 20 -112 23 -415 26 -198 2
-343 0 -362 -6z m747 -179 c237 -81 381 -306 383 -596 1 -176 -44 -320 -135
-437 -50 -62 -70 -81 -150 -130 -96 -59 -155 -68 -472 -68 l-276 0 0 631 0
631 293 -4 c270 -4 297 -6 357 -27z"/>
<path d="M5125 1940 c-145 -14 -264 -68 -367 -167 -200 -194 -247 -527 -111
-803 50 -103 160 -213 263 -263 100 -49 176 -67 283 -67 152 0 273 53 371 161
l46 51 0 -72 c0 -85 9 -105 54 -120 41 -13 98 6 115 38 8 14 11 202 11 592 0
482 -2 575 -15 599 -17 33 -33 41 -84 41 -58 0 -81 -31 -81 -109 l0 -63 -47
50 c-98 102 -253 149 -438 132z m214 -189 c124 -39 202 -106 242 -210 27 -70
39 -305 19 -404 -42 -217 -205 -340 -431 -324 -193 13 -357 159 -404 359 -39
167 -1 344 97 453 115 127 310 178 477 126z"/>
<path d="M2502 399 c-62 -13 -102 -71 -102 -149 0 -92 51 -150 130 -150 54 0
96 25 81 49 -7 11 -13 11 -32 -3 -27 -18 -62 -21 -90 -6 -57 31 -67 162 -15
207 30 25 84 31 104 11 9 -9 15 -9 24 0 25 25 -43 54 -100 41z"/>
<path d="M2680 250 c0 -143 1 -150 20 -150 18 0 20 7 20 70 l0 70 70 0 70 0 0
-70 c0 -56 3 -70 15 -70 13 0 15 23 15 150 0 124 -2 150 -15 150 -10 0 -15
-16 -17 -62 l-3 -63 -67 -3 -68 -3 0 66 c0 58 -2 65 -20 65 -19 0 -20 -7 -20
-150z"/>
<path d="M3035 388 c-9 -24 -95 -282 -95 -285 0 -2 8 -3 19 -3 13 0 22 12 31
45 l13 45 57 0 58 0 11 -45 c9 -34 16 -45 31 -45 11 0 20 3 19 8 0 4 -22 70
-48 147 -40 117 -51 141 -70 143 -11 2 -23 -3 -26 -10z m49 -97 c9 -30 16 -58
16 -63 0 -4 -18 -8 -40 -8 -22 0 -40 5 -40 10 0 25 35 129 42 122 3 -4 13 -31
22 -61z"/>
<path d="M3230 250 c0 -123 3 -150 14 -150 21 0 21 6 18 160 -2 114 -6 140
-18 140 -12 0 -14 -26 -14 -150z"/>
<path d="M3350 250 c0 -125 2 -150 15 -150 12 0 15 22 17 120 l3 119 68 -119
c50 -88 73 -120 88 -120 18 0 19 8 19 150 0 125 -2 150 -15 150 -12 0 -15 -23
-17 -122 l-3 -122 -69 122 c-49 87 -74 122 -87 122 -18 0 -19 -11 -19 -150z"/>
</g>
</svg>
